<svg xmlns="http://www.w3.org/2000/svg" viewBox="0 0 660 921" fill="none">
  <rect width="660" height="921" rx="42" fill="#F4EFE6"/>
  <circle cx="561" cy="124" r="136" fill="#FFD29B" fill-opacity=".45"/>
  <circle cx="112" cy="792" r="164" fill="#B8D7FF" fill-opacity=".34"/>
  <rect x="42" y="48" width="576" height="172" rx="28" fill="#FFFCF8" fill-opacity=".86"/>
  <text x="74" y="106" fill="#1D2333" font-family="JetBrains Mono, monospace" font-size="26" letter-spacing="4">GUIDES</text>
  <text x="74" y="154" fill="#5B6375" font-family="JetBrains Mono, monospace" font-size="18">build / ship / iterate</text>
  <rect x="60" y="258" width="540" height="604" rx="42" fill="#1E263D"/>
  <rect x="92" y="298" width="188" height="116" rx="24" fill="#FFB85C"/>
  <text x="116" y="340" fill="#7E4711" font-family="JetBrains Mono, monospace" font-size="20">STEP 01</text>
  <text x="116" y="378" fill="#2E1D0A" font-family="JetBrains Mono, monospace" font-size="28">mkdocs.yml</text>
  <rect x="382" y="314" width="164" height="84" rx="20" fill="#C8F0DA"/>
  <text x="410" y="362" fill="#134734" font-family="JetBrains Mono, monospace" font-size="22">deploy</text>
  <rect x="116" y="470" width="432" height="182" rx="30" fill="#2B3554"/>
  <path d="M168 561H302V512H360V561H490" stroke="#8CC6FF" stroke-width="16" stroke-linecap="round" stroke-linejoin="round"/>
  <circle cx="168" cy="561" r="18" fill="#8CC6FF"/>
  <circle cx="302" cy="512" r="18" fill="#8CC6FF"/>
  <circle cx="360" cy="561" r="18" fill="#FFB85C"/>
  <circle cx="490" cy="561" r="18" fill="#9DE4B6"/>
  <rect x="138" y="708" width="384" height="96" rx="24" fill="#F6F1E7"/>
  <text x="168" y="760" fill="#1E263D" font-family="JetBrains Mono, monospace" font-size="24">Publish a calm, searchable space</text>
</svg>
