<svg xmlns="http://www.w3.org/2000/svg" viewBox="0 0 660 921" fill="none">
  <rect width="660" height="921" rx="42" fill="#0F1526"/>
  <circle cx="548" cy="110" r="146" fill="#FF9F43" fill-opacity=".24"/>
  <circle cx="118" cy="800" r="174" fill="#3D6AFF" fill-opacity=".18"/>
  <rect x="42" y="48" width="576" height="172" rx="28" fill="#171F35"/>
  <text x="74" y="106" fill="#F4F7FF" font-family="JetBrains Mono, monospace" font-size="26" letter-spacing="4">GUIDES</text>
  <text x="74" y="154" fill="#8D9ABB" font-family="JetBrains Mono, monospace" font-size="18">build / ship / iterate</text>
  <rect x="60" y="258" width="540" height="604" rx="42" fill="#131B31"/>
  <rect x="92" y="298" width="188" height="116" rx="24" fill="#FF9F43"/>
  <text x="116" y="340" fill="#522D00" font-family="JetBrains Mono, monospace" font-size="20">STEP 01</text>
  <text x="116" y="378" fill="#241300" font-family="JetBrains Mono, monospace" font-size="28">mkdocs.yml</text>
  <rect x="382" y="314" width="164" height="84" rx="20" fill="#84E0B1"/>
  <text x="410" y="362" fill="#0D3B29" font-family="JetBrains Mono, monospace" font-size="22">deploy</text>
  <rect x="116" y="470" width="432" height="182" rx="30" fill="#202A49"/>
  <path d="M168 561H302V512H360V561H490" stroke="#7FB8FF" stroke-width="16" stroke-linecap="round" stroke-linejoin="round"/>
  <circle cx="168" cy="561" r="18" fill="#7FB8FF"/>
  <circle cx="302" cy="512" r="18" fill="#7FB8FF"/>
  <circle cx="360" cy="561" r="18" fill="#FF9F43"/>
  <circle cx="490" cy="561" r="18" fill="#84E0B1"/>
  <rect x="138" y="708" width="384" height="96" rx="24" fill="#E9EEF9"/>
  <text x="168" y="760" fill="#182038" font-family="JetBrains Mono, monospace" font-size="24">Publish a calm, searchable space</text>
</svg>
