<svg xmlns="http://www.w3.org/2000/svg" viewBox="0 0 660 921" fill="none">
  <rect width="660" height="921" rx="42" fill="#F7EDEE"/>
  <circle cx="518" cy="138" r="140" fill="#FFB5AE" fill-opacity=".38"/>
  <circle cx="118" cy="766" r="176" fill="#D9C7FF" fill-opacity=".28"/>
  <text x="66" y="118" fill="#2D2438" font-family="JetBrains Mono, monospace" font-size="26" letter-spacing="4">WRITING</text>
  <text x="66" y="162" fill="#7A7284" font-family="JetBrains Mono, monospace" font-size="18">thesis / draft / defense</text>
  <rect x="82" y="216" width="496" height="612" rx="34" fill="#FFF9F8" stroke="#E4D2D4" stroke-width="6"/>
  <rect x="116" y="262" width="198" height="30" rx="15" fill="#2D2438"/>
  <rect x="116" y="320" width="382" height="16" rx="8" fill="#D6C4C7"/>
  <rect x="116" y="352" width="354" height="16" rx="8" fill="#D6C4C7"/>
  <rect x="116" y="384" width="310" height="16" rx="8" fill="#D6C4C7"/>
  <rect x="116" y="442" width="428" height="142" rx="26" fill="#F3E6E7"/>
  <path d="M144 540L216 488L276 522L332 470L402 512L470 456L516 498" stroke="#B3555F" stroke-width="10" stroke-linecap="round" stroke-linejoin="round"/>
  <circle cx="216" cy="488" r="12" fill="#B3555F"/>
  <circle cx="332" cy="470" r="12" fill="#B3555F"/>
  <circle cx="470" cy="456" r="12" fill="#B3555F"/>
  <rect x="116" y="626" width="184" height="110" rx="22" fill="#2D2438"/>
  <text x="144" y="676" fill="#FFF5F5" font-family="JetBrains Mono, monospace" font-size="22">chapter 01</text>
  <text x="144" y="714" fill="#D6C4FF" font-family="JetBrains Mono, monospace" font-size="18">context + method</text>
  <rect x="330" y="626" width="214" height="110" rx="22" fill="#FFD6B3"/>
  <text x="358" y="676" fill="#5A3111" font-family="JetBrains Mono, monospace" font-size="22">defense flow</text>
  <text x="358" y="714" fill="#8B5A34" font-family="JetBrains Mono, monospace" font-size="18">talk / pace / timing</text>
</svg>
